<?xml version="1.0" encoding="UTF-8" standalone="no"?>
<!DOCTYPE svg PUBLIC "-//W3C//DTD SVG 1.1//EN" "http://www.w3.org/Graphics/SVG/1.1/DTD/svg11.dtd">
<svg width="100%" height="100%" viewBox="0 0 600 130" version="1.1" xmlns="http://www.w3.org/2000/svg" xmlns:xlink="http://www.w3.org/1999/xlink" xml:space="preserve" xmlns:serif="http://www.serif.com/" style="fill-rule:evenodd;clip-rule:evenodd;stroke-linejoin:round;stroke-miterlimit:2;">
    <g transform="matrix(1,0,0,1,-20.4,-257.2)">
        <path d="M264.4,380.2C270,380.2 272.4,375.5 272.4,370.7C272.4,365.8 269.8,361.1 264.4,361.2C259,361.2 256.3,365.8 256.3,370.7C256.4,375.5 258.8,380.2 264.4,380.2M266.4,383.1C265.8,383.2 265.1,383.2 264.5,383.2C257,383.2 252.8,378 252.8,370.6C252.8,363.4 257.1,358 264.5,358C271.9,358 276.2,363.4 276.2,370.6C276.2,376.1 273.9,380.3 269.6,382.1L275.3,387.2L271,387.2L266.4,383.1Z" style="fill:rgb(99,60,32);fill-rule:nonzero;"/>
    </g>
    <g transform="matrix(1,0,0,1,-20.4,-257.2)">
        <path d="M294,361.8L289.2,373.9L298.9,373.9L294,361.8ZM292.3,358.5L296,358.5L306.3,382.9L302.5,382.9L300,376.7L288,376.7L285.5,382.9L281.8,382.9L292.3,358.5Z" style="fill:rgb(99,60,32);fill-rule:nonzero;"/>
    </g>
    <g transform="matrix(1,0,0,1,-20.4,-257.2)">
        <path d="M315.6,361.6L308,361.6L308,358.5L326.6,358.5L326.6,361.6L319,361.6L319,382.8L315.6,382.8L315.6,361.6Z" style="fill:rgb(99,60,32);fill-rule:nonzero;"/>
    </g>
    <g transform="matrix(1,0,0,1,-20.4,-257.2)">
        <path d="M341.1,361.8L336.3,373.9L346,373.9L341.1,361.8ZM339.4,358.5L343.1,358.5L353.4,382.9L349.6,382.9L347.1,376.7L335.2,376.7L332.7,382.9L329,382.9L339.4,358.5Z" style="fill:rgb(99,60,32);fill-rule:nonzero;"/>
    </g>
    <g transform="matrix(1,0,0,1,-20.4,-257.2)">
        <path d="M363.7,369L366.7,369C370,369 372,367.5 372,365.2C372,363 370.3,361.6 367.1,361.6L363.7,361.6L363.7,369ZM360.2,358.5L366.2,358.5C371,358.5 375.7,359.3 375.7,365.1C375.7,368.1 373.5,370.1 370.6,370.6L370.6,370.7C371.7,371.1 372.2,371.6 373,373.1L377.6,382.8L373.6,382.8L369.9,374.3C368.8,371.9 367.7,371.9 365.8,371.9L363.7,371.9L363.7,382.7L360.2,382.7L360.2,358.5Z" style="fill:rgb(99,60,32);fill-rule:nonzero;"/>
    </g>
    <g transform="matrix(1,0,0,1,-20.4,-257.2)">
        <path d="M417.4,372.8C417.4,379.6 413.9,383.3 407.9,383.3C401.9,383.3 398.4,379.6 398.4,372.8L398.4,358.5L401.9,358.5L401.9,372.3C401.9,377 403.3,380.2 407.9,380.2C412.4,380.2 413.9,377 413.9,372.3L413.9,358.5L417.4,358.5L417.4,372.8Z" style="fill:rgb(99,60,32);fill-rule:nonzero;"/>
    </g>
    <g transform="matrix(1,0,0,1,-20.4,-257.2)">
        <path d="M427.1,358.5L431.8,358.5L442.6,378.1L442.7,378.1L442.7,358.5L446.1,358.5L446.1,382.8L441.7,382.8L430.7,362.8L430.6,362.8L430.6,382.8L427.1,382.8L427.1,358.5Z" style="fill:rgb(99,60,32);fill-rule:nonzero;"/>
    </g>
    <g transform="matrix(1,0,0,1,-20.4,-257.2)">
        <rect x="455.8" y="358.5" width="3.5" height="24.4" style="fill:rgb(99,60,32);"/>
    </g>
    <g transform="matrix(1,0,0,1,-20.4,-257.2)">
        <path d="M479.7,382.8L475.3,382.8L466.2,358.5L470,358.5L477.5,379.8L477.6,379.8L485.3,358.5L489,358.5L479.7,382.8Z" style="fill:rgb(99,60,32);fill-rule:nonzero;"/>
    </g>
    <g transform="matrix(1,0,0,1,-20.4,-257.2)">
        <path d="M496,358.5L509.6,358.5L509.6,361.6L499.5,361.6L499.5,368.7L508.7,368.7L508.7,371.7L499.5,371.7L499.5,379.8L509.6,379.8L509.6,382.8L496,382.8L496,358.5Z" style="fill:rgb(99,60,32);fill-rule:nonzero;"/>
    </g>
    <g transform="matrix(1,0,0,1,-20.4,-257.2)">
        <path d="M522,369L525,369C528.3,369 530.3,367.5 530.3,365.2C530.3,363 528.6,361.6 525.4,361.6L522,361.6L522,369ZM518.5,358.5L524.5,358.5C529.3,358.5 534,359.3 534,365.1C534,368.1 531.8,370.1 529,370.6L529,370.7C530.1,371.1 530.6,371.6 531.4,373.1L536,382.8L532,382.8L528.3,374.3C527.2,371.9 526.1,371.9 524.2,371.9L522,371.9L522,382.7L518.5,382.7L518.5,358.5Z" style="fill:rgb(99,60,32);fill-rule:nonzero;"/>
    </g>
    <g transform="matrix(1,0,0,1,-20.4,-257.2)">
        <path d="M554.6,362.2C552.8,361.5 551.8,361.2 550.1,361.2C548.1,361.2 545.8,361.9 545.8,364.4C545.8,369.1 556.3,368 556.3,376C556.3,381.2 552.3,383.2 547.4,383.2C545.7,383.2 544,382.7 542.4,382.2L542.7,379C543.9,379.5 546,380.2 547.7,380.2C549.7,380.2 552.5,379.1 552.5,376.2C552.5,370.8 542,372.3 542,364.7C542,360.4 545.4,358.1 549.8,358.1C551.4,358.1 553.3,358.4 555,359L554.6,362.2Z" style="fill:rgb(99,60,32);fill-rule:nonzero;"/>
    </g>
    <g transform="matrix(1,0,0,1,-20.4,-257.2)">
        <rect x="564.5" y="358.5" width="3.5" height="24.4" style="fill:rgb(99,60,32);"/>
    </g>
    <g transform="matrix(1,0,0,1,-20.4,-257.2)">
        <path d="M582.6,361.6L575,361.6L575,358.5L593.6,358.5L593.6,361.6L586,361.6L586,382.8L582.6,382.8L582.6,361.6Z" style="fill:rgb(99,60,32);fill-rule:nonzero;"/>
    </g>
    <g transform="matrix(1,0,0,1,-20.4,-257.2)">
        <path d="M607.4,372.7L597.9,358.5L602,358.5L609.2,369.4L616.3,358.5L620.4,358.5L610.9,372.7L610.9,382.8L607.4,382.8L607.4,372.7Z" style="fill:rgb(99,60,32);fill-rule:nonzero;"/>
    </g>
    <g transform="matrix(1,0,0,1,-20.4,-257.2)">
        <path d="M423,297.1C424,297.1 424.9,296.7 425.7,296C426.5,295.3 426.9,294.4 426.9,293.4C426.9,292.4 426.5,291.5 425.7,290.8C424.9,290.1 424,289.7 423,289.7C421.9,289.7 421,290 420.2,290.7C419.4,291.4 419,292.3 419,293.3C419,294.3 419.4,295.2 420.2,295.9C421,296.7 421.9,297.1 423,297.1" style="fill:rgb(99,60,32);fill-rule:nonzero;"/>
    </g>
    <g transform="matrix(1,0,0,1,-20.4,-257.2)">
        <path d="M431.8,297.1C432.8,297.1 433.7,296.7 434.5,296C435.3,295.3 435.7,294.4 435.7,293.4C435.7,292.4 435.3,291.5 434.5,290.8C433.7,290.1 432.8,289.7 431.8,289.7C430.7,289.7 429.8,290 429,290.7C428.2,291.4 427.8,292.3 427.8,293.3C427.8,294.3 428.2,295.2 429,295.9C429.8,296.7 430.7,297.1 431.8,297.1" style="fill:rgb(99,60,32);fill-rule:nonzero;"/>
    </g>
    <g transform="matrix(1,0,0,1,-20.4,-257.2)">
        <path d="M537,327.2C534.6,329.5 531.6,330.7 528.1,330.7C524.6,330.7 521.6,329.5 519.1,327.2C516.6,324.9 515.4,322 515.4,318.6C515.4,315.1 516.6,312.2 519.1,309.9C521.5,307.6 524.5,306.4 528.1,306.4C531.6,306.4 534.6,307.5 537,309.9C539.4,312.3 540.6,315.2 540.6,318.6C540.7,322 539.5,324.9 537,327.2M473.7,330.2C470.2,330.2 467.2,329 464.8,326.7C462.4,324.4 461.1,321.5 461.1,318.1C461.1,314.6 462.3,311.7 464.8,309.4C467.3,307.1 470.2,305.9 473.7,305.9C477.3,305.9 480.2,307.1 482.6,309.4C485,311.7 486.2,314.6 486.2,318.1C486.2,321.5 485,324.4 482.5,326.7C480.2,329.1 477.2,330.2 473.7,330.2M540.4,305.8C537.1,302.5 533,300.8 528.1,300.8C523.2,300.8 519.1,302.5 515.8,305.8C512.5,309.1 510.8,313.2 510.8,318.1C510.8,323.2 512.3,327.2 515.3,330.4L485.4,330.4C489,327 490.8,322.8 490.8,317.9C490.8,313 489.1,308.9 485.9,305.6C482.6,302.3 478.5,300.7 473.7,300.7C468.8,300.7 464.7,302.3 461.4,305.6C458.1,308.9 456.5,313 456.5,317.9C456.5,322.9 458.3,327 461.8,330.4L441.4,330.4L441.4,301.8L424.4,301.8C419.9,301.8 416.4,304.4 413.7,307.8C411.2,310.9 409.9,314.6 409.9,319.2C409.9,323.5 411,327.1 413.9,330.5C414.9,331.7 416.1,332.5 417.4,333.3C418.3,333.9 418.9,334.1 420.1,334.5C421.3,335 424.4,335.4 425.6,335.4L433.6,335.4L433.6,330.8C427.2,330.8 422.9,330.3 420.6,329.4C416.5,327.7 414.5,324.1 414.5,318.5C414.5,315.5 415.4,312.8 417.2,310.5C419.2,307.9 421.6,306.6 424.5,306.6L436.5,306.6L436.5,335.2L523.5,335.2C526.1,335.9 528.8,336 531.4,335.5C535.5,334.8 538.8,332.7 541.5,329.3C544,326 545.3,322.3 545.3,318.1C545.4,313.2 543.7,309.1 540.4,305.8" style="fill:rgb(99,60,32);fill-rule:nonzero;"/>
    </g>
    <g transform="matrix(1,0,0,1,-20.4,-257.2)">
        <path d="M590.3,340.4C589.2,340.4 588.3,340.8 587.6,341.5C586.8,342.2 586.4,343.1 586.4,344.1C586.4,345.2 586.8,346 587.6,346.8C588.4,347.5 589.3,347.9 590.3,347.9C591.3,347.9 592.3,347.5 593,346.8C593.8,346.1 594.2,345.2 594.2,344.1C594.2,343 593.8,342.2 593,341.5C592.2,340.7 591.3,340.4 590.3,340.4" style="fill:rgb(99,60,32);fill-rule:nonzero;"/>
    </g>
    <g transform="matrix(1,0,0,1,-20.4,-257.2)">
        <path d="M570,330.3C567.8,330.3 566.1,330.1 565,329.7C563.4,329.2 561.7,328.3 560.2,326.9C558.8,325.3 557.9,323.7 557.4,322.1C557.1,320.9 556.8,319.3 556.8,317.1L556.8,288.5L552,288.5L552,318.8C552.1,321.4 552.4,323 552.7,323.8C553.5,326.3 554.8,328.5 556.7,330.4C558.6,332.3 560.8,333.6 563.3,334.4C564.1,334.6 565.7,335 568.3,335.1L620.4,335.1L620.4,330.4L586.3,302L583,305.3L612.7,330.4L570,330.4L570,330.3Z" style="fill:rgb(99,60,32);fill-rule:nonzero;"/>
    </g>
    <g transform="matrix(1,0,0,1,-20.4,-257.2)">
        <path d="M367.1,296.8C368.2,296.8 369.1,296.5 369.9,295.8C370.7,295.1 371,294.3 371,293.2C371,292.2 370.6,291.3 369.9,290.6C369.1,289.9 368.2,289.6 367.1,289.6C366,289.6 365.1,289.9 364.4,290.6C363.6,291.3 363.2,292.2 363.2,293.2C363.2,294.3 363.6,295.1 364.4,295.8C365.2,296.5 366.1,296.8 367.1,296.8" style="fill:rgb(99,60,32);fill-rule:nonzero;"/>
    </g>
    <g transform="matrix(1,0,0,1,-20.4,-257.2)">
        <path d="M357.9,296.8C359,296.8 359.9,296.5 360.6,295.8C361.4,295.1 361.8,294.3 361.8,293.2C361.8,292.2 361.4,291.3 360.6,290.6C359.9,289.9 359,289.6 357.9,289.6C356.9,289.6 355.9,289.9 355.2,290.6C354.4,291.3 354,292.2 354,293.2C354,294.3 354.4,295.1 355.2,295.8C355.9,296.5 356.9,296.8 357.9,296.8" style="fill:rgb(99,60,32);fill-rule:nonzero;"/>
    </g>
    <g transform="matrix(1,0,0,1,-20.4,-257.2)">
        <path d="M372.3,322.9L372.3,330.1L359.9,330.1C357.1,329.8 355,329.5 352.8,327.7C349.9,325.4 348,321.6 348.1,317.9C348.2,315.1 349.1,312.2 351,310C355.7,304.4 366.3,304.8 370.9,310.3C372.3,311.9 372.5,313.9 372.4,316C372.3,318.3 372.3,320.6 372.3,322.9M324.5,327.2C320.8,330.1 315.8,330.2 311.3,330.2L294.4,330.2L294.4,316.8C296.7,314.6 299.5,312.5 302.9,310.5C309,307 317.3,305.2 323.9,309.1C330.4,312.8 330,322.9 324.5,327.2M374.2,307.2C371.8,304.5 368.5,302.5 365,301.8C357.9,300.4 349.3,303.3 345.7,309.5C342.4,315.1 342.4,322.5 346.2,327.8C346.5,328.3 347.9,330.3 348.4,330.3L328,330.3C328.6,330.3 329.9,328.4 330.2,328C335,321.9 334.4,311.6 328.3,306.5C328.3,306.5 328.2,306.5 328.2,306.4C324.7,303.6 320.6,302.6 316.2,302.4C310.1,302.1 304.4,303.9 299.3,307.2C297.6,308.3 295.9,309.5 294.2,310.7L294.2,288.5L289.5,288.5L289.5,330.2L267.3,330.2L267.3,311.8L262.6,311.8L262.6,329C262.6,332 261.5,334.7 259.4,336.8C257.3,338.9 254.6,339.9 251.6,339.7L251.6,345C254.7,345 257.6,344.1 260.2,342.2C262.8,340.3 264.7,338 265.9,335L377,335L377,317.5C377,313.7 376.8,310.2 374.2,307.2" style="fill:rgb(99,60,32);fill-rule:nonzero;"/>
    </g>
    <g transform="matrix(1,0,0,1,-20.4,-257.2)">
        <path d="M38.2,299.9L43.7,279.4L43.7,361.1L38.2,366.3L38.2,299.9Z" style="fill:rgb(147,114,92);fill-rule:nonzero;"/>
    </g>
    <g transform="matrix(1,0,0,1,-20.4,-257.2)">
        <path d="M118.8,348.9L118.8,361.1L134.9,344.1L118.8,348.9Z" style="fill:rgb(147,114,92);fill-rule:nonzero;"/>
    </g>
    <g transform="matrix(1,0,0,1,-20.4,-257.2)">
        <path d="M98,382.9L164.7,382.9L134.9,344.1L98,382.9Z" style="fill:rgb(194,172,158);fill-rule:nonzero;"/>
    </g>
    <g transform="matrix(1,0,0,1,-20.4,-257.2)">
        <path d="M152.9,343.4L152.9,272.5L148.1,270.8L148.1,272.1L151.6,273.4L151.6,343.1L152.9,343.4Z" style="fill:rgb(194,172,158);fill-rule:nonzero;"/>
    </g>
    <g transform="matrix(1,0,0,1,-20.4,-257.2)">
        <path d="M160.5,345.2L160.5,275.2L155.6,273.5L155.6,274.8L159.4,276.1L159.4,345L160.5,345.2Z" style="fill:rgb(194,172,158);fill-rule:nonzero;"/>
    </g>
    <g transform="matrix(1,0,0,1,-20.4,-257.2)">
        <path d="M168,347L168,277.8L163.2,276.1L163.2,277.4L166.7,278.7L166.7,346.7L168,347Z" style="fill:rgb(194,172,158);fill-rule:nonzero;"/>
    </g>
    <g transform="matrix(1,0,0,1,-20.4,-257.2)">
        <path d="M175.5,348.7L175.5,280.5L170.7,278.8L170.7,280.1L174.3,281.4L174.3,348.5L175.5,348.7Z" style="fill:rgb(194,172,158);fill-rule:nonzero;"/>
    </g>
    <g transform="matrix(1,0,0,1,-20.4,-257.2)">
        <path d="M183,350.5L183,283.1L178.2,281.4L178.2,282.7L181.7,284L181.7,350.2L183,350.5Z" style="fill:rgb(194,172,158);fill-rule:nonzero;"/>
    </g>
    <g transform="matrix(1,0,0,1,-20.4,-257.2)">
        <path d="M190.5,352.2L190.5,285.8L185.6,284.1L185.6,285.3L189.3,286.6L189.3,351.9L190.5,352.2Z" style="fill:rgb(194,172,158);fill-rule:nonzero;"/>
    </g>
    <g transform="matrix(1,0,0,1,-20.4,-257.2)">
        <path d="M145.4,341.7L145.4,269.9L140.5,268.2L140.5,269.4L144.1,270.7L144.1,341.4L145.4,341.7Z" style="fill:rgb(194,172,158);fill-rule:nonzero;"/>
    </g>
    <g transform="matrix(1,0,0,1,-20.4,-257.2)">
        <path d="M220.4,382.9L196.2,358.4L134.9,344.1L164.7,382.9L220.4,382.9Z" style="fill:rgb(225,213,205);fill-rule:nonzero;"/>
    </g>
    <g transform="matrix(1,0,0,1,-20.4,-257.2)">
        <path d="M66.4,346.4L61.3,346.4C62.2,347.2 63.2,347.9 64.3,348.6C65,347.8 65.8,347 66.4,346.4" style="fill:rgb(99,60,32);fill-rule:nonzero;"/>
    </g>
    <g transform="matrix(1,0,0,1,-20.4,-257.2)">
        <path d="M88.1,346.2L88.1,353.2C87.3,353.3 86.5,353.5 85.7,353.6C84.5,352.4 82.7,350.6 82.1,350C81.5,350.6 79.7,352.4 78.5,353.6C79.7,353.7 80.8,353.8 82.1,353.8C87,353.8 91.6,352.7 95.8,350.8L95.8,346.2L88.1,346.2Z" style="fill:rgb(99,60,32);fill-rule:nonzero;"/>
    </g>
    <g transform="matrix(1,0,0,1,-20.4,-257.2)">
        <path d="M67.3,345.1L67.3,335.7L57.9,335.7L57.9,343.1C57.5,342.6 57,342.1 56.6,341.6C58,343.4 59.6,345 61.4,346.4C60.9,346 60.4,345.6 59.9,345.1L67.3,345.1Z" style="fill:rgb(99,60,32);fill-rule:nonzero;"/>
    </g>
    <g transform="matrix(1,0,0,1,-20.4,-257.2)">
        <path d="M76.2,346.3L68.7,346.3L68.7,350.9C71.8,352.3 75.1,353.2 78.5,353.6C77.7,353.5 77,353.4 76.2,353.3L76.2,346.3Z" style="fill:rgb(99,60,32);fill-rule:nonzero;"/>
    </g>
    <g transform="matrix(1,0,0,1,-20.4,-257.2)">
        <path d="M67.4,347.3L65.4,349.3C66.4,349.9 67.5,350.5 68.6,351C68.2,350.8 67.7,350.6 67.3,350.4L67.3,347.3L67.4,347.3Z" style="fill:rgb(99,60,32);fill-rule:nonzero;"/>
    </g>
    <g transform="matrix(1,0,0,1,-20.4,-257.2)">
        <path d="M56.6,326.8L49.9,326.8C49.8,326 49.6,325.1 49.6,324.2C50.8,323 52.5,321.3 53,320.8C52.5,320.3 50.9,318.7 49.7,317.5C49.8,317 49.8,316.4 49.9,315.9L54.1,320.1L61.2,320.1L57.1,315.9L49.9,315.9C50,315.5 50,315 50.1,314.6L56.7,314.6L56.7,307L52.6,307C50.6,311.2 49.4,316 49.4,321C49.4,325.7 50.4,330.2 52.2,334.2L56.6,334.2L56.6,326.8Z" style="fill:rgb(99,60,32);fill-rule:nonzero;"/>
    </g>
    <g transform="matrix(1,0,0,1,-20.4,-257.2)">
        <path d="M55.6,305.9L54,304.3C53.4,305.2 52.9,306.2 52.5,307.2C52.7,306.8 52.9,306.3 53.1,305.9L55.6,305.9Z" style="fill:rgb(99,60,32);fill-rule:nonzero;"/>
    </g>
    <g transform="matrix(1,0,0,1,-20.4,-257.2)">
        <path d="M52.8,335.7C53.1,336.3 53.4,336.9 53.8,337.5L55.6,335.7L52.8,335.7Z" style="fill:rgb(99,60,32);fill-rule:nonzero;"/>
    </g>
    <g transform="matrix(1,0,0,1,-20.4,-257.2)">
        <path d="M54.4,338.6C55.1,339.6 55.8,340.6 56.5,341.6L56.5,336.5C55.9,337 55.1,337.8 54.4,338.6" style="fill:rgb(99,60,32);fill-rule:nonzero;"/>
    </g>
    <g transform="matrix(1,0,0,1,-20.4,-257.2)">
        <path d="M105.6,307.3L97.9,307.3C99.2,308.5 101.2,310.5 101.7,311.1C102.3,310.6 104.3,308.6 105.6,307.3" style="fill:rgb(99,60,32);fill-rule:nonzero;"/>
    </g>
    <g transform="matrix(1,0,0,1,-20.4,-257.2)">
        <path d="M88.2,324.7C89.4,323.5 91.4,321.4 92,320.9C91.4,320.3 89.4,318.3 88.2,317.1L88.2,324.7Z" style="fill:rgb(99,60,32);fill-rule:nonzero;"/>
    </g>
    <g transform="matrix(1,0,0,1,-20.4,-257.2)">
        <path d="M101.2,312.4L97,308.2L97,315.1L101.2,319.3L101.2,312.4Z" style="fill:rgb(99,60,32);fill-rule:nonzero;"/>
    </g>
    <g transform="matrix(1,0,0,1,-20.4,-257.2)">
        <path d="M99.9,348.4C99.5,348.6 99.2,348.9 98.8,349.1L96.9,347.2L96.9,350.1C99,349 100.9,347.8 102.7,346.3L97.9,346.3C98.5,347 99.2,347.8 99.9,348.4" style="fill:rgb(99,60,32);fill-rule:nonzero;"/>
    </g>
    <g transform="matrix(1,0,0,1,-20.4,-257.2)">
        <rect x="88.2" y="307.1" width="7.6" height="7.6" style="fill:rgb(99,60,32);"/>
    </g>
    <g transform="matrix(1,0,0,1,-20.4,-257.2)">
        <path d="M93.1,320.2L100.2,320.2L96.1,316L88.9,316L93.1,320.2Z" style="fill:rgb(99,60,32);fill-rule:nonzero;"/>
    </g>
    <g transform="matrix(1,0,0,1,-20.4,-257.2)">
        <path d="M96.9,335.7L96.9,345.1L104.1,345.1C103.6,345.5 103.1,346 102.6,346.4C103.9,345.3 105.2,344.1 106.3,342.9L106.3,335.8L96.9,335.8L96.9,335.7Z" style="fill:rgb(99,60,32);fill-rule:nonzero;"/>
    </g>
    <g transform="matrix(1,0,0,1,-20.4,-257.2)">
        <path d="M107.7,341.3C107.3,341.8 106.9,342.3 106.4,342.8C107.6,341.4 108.7,340 109.7,338.4C109,337.7 108.3,336.9 107.7,336.4L107.7,341.3Z" style="fill:rgb(99,60,32);fill-rule:nonzero;"/>
    </g>
    <g transform="matrix(1,0,0,1,-20.4,-257.2)">
        <path d="M56.6,305L56.6,300.7C55.7,301.8 54.9,303 54.1,304.3C54.3,303.9 54.6,303.6 54.8,303.2C55.4,303.8 56,304.5 56.6,305" style="fill:rgb(99,60,32);fill-rule:nonzero;"/>
    </g>
    <g transform="matrix(1,0,0,1,-20.4,-257.2)">
        <path d="M102.4,319.2L106.5,315.2L106.5,308.2L102.4,312.3L102.4,319.2Z" style="fill:rgb(99,60,32);fill-rule:nonzero;"/>
    </g>
    <g transform="matrix(1,0,0,1,-20.4,-257.2)">
        <path d="M82.1,291.4C82.5,291 83.8,289.7 84.9,288.6C83.9,288.5 83,288.5 82,288.5C80.5,288.5 79.1,288.6 77.7,288.8C78.2,288.7 78.8,288.7 79.3,288.6C80.4,289.7 81.7,291 82.1,291.4" style="fill:rgb(99,60,32);fill-rule:nonzero;"/>
    </g>
    <g transform="matrix(1,0,0,1,-20.4,-257.2)">
        <path d="M60.6,296.6C61.1,296.2 61.6,295.7 62.2,295.3C61.6,295.7 61.1,296.1 60.6,296.6" style="fill:rgb(99,60,32);fill-rule:nonzero;"/>
    </g>
    <g transform="matrix(1,0,0,1,-20.4,-257.2)">
        <path d="M67.4,292C67.8,291.8 68.2,291.6 68.6,291.4C68.2,291.6 67.8,291.8 67.4,292" style="fill:rgb(99,60,32);fill-rule:nonzero;"/>
    </g>
    <g transform="matrix(1,0,0,1,-20.4,-257.2)">
        <path d="M52.8,335.7C52.6,335.3 52.4,334.9 52.2,334.4C52.4,334.8 52.6,335.3 52.8,335.7" style="fill:rgb(99,60,32);fill-rule:nonzero;"/>
    </g>
    <g transform="matrix(1,0,0,1,-20.4,-257.2)">
        <path d="M107.5,316L103.3,320.2L110.4,320.2L114.4,316.2C114.5,316.7 114.5,317.3 114.6,317.8C113.4,319 112,320.4 111.5,320.9C112,321.4 113.4,322.8 114.6,324C114.5,324.9 114.4,325.8 114.3,326.6L107.7,326.6L107.7,334.2L112,334.2C111.8,334.6 111.6,335.1 111.4,335.5C113.5,331.2 114.7,326.3 114.7,321.2C114.7,319.2 114.5,317.2 114.2,315.3C114.2,315.5 114.3,315.8 114.3,316L107.5,316Z" style="fill:rgb(99,60,32);fill-rule:nonzero;"/>
    </g>
    <g transform="matrix(1,0,0,1,-20.4,-257.2)">
        <path d="M86.9,288.9C87.3,289 87.7,289 88.1,289.1C87.7,289 87.3,288.9 86.9,288.9" style="fill:rgb(99,60,32);fill-rule:nonzero;"/>
    </g>
    <g transform="matrix(1,0,0,1,-20.4,-257.2)">
        <path d="M109.4,303.3C109.6,303.7 109.9,304 110.1,304.4C109.8,304 109.6,303.7 109.4,303.3" style="fill:rgb(99,60,32);fill-rule:nonzero;"/>
    </g>
    <g transform="matrix(1,0,0,1,-20.4,-257.2)">
        <path d="M110.4,337.4C110.2,337.8 110,338.1 109.7,338.5C109.9,338.1 110.2,337.7 110.4,337.4" style="fill:rgb(99,60,32);fill-rule:nonzero;"/>
    </g>
    <g transform="matrix(1,0,0,1,-20.4,-257.2)">
        <path d="M97,350.2C96.6,350.4 96.2,350.6 95.7,350.8C96.1,350.6 96.5,350.4 97,350.2" style="fill:rgb(99,60,32);fill-rule:nonzero;"/>
    </g>
    <g transform="matrix(1,0,0,1,-20.4,-257.2)">
        <path d="M54.4,338.6C54.2,338.2 53.9,337.9 53.7,337.5C54,337.8 54.2,338.2 54.4,338.6" style="fill:rgb(99,60,32);fill-rule:nonzero;"/>
    </g>
    <g transform="matrix(1,0,0,1,-20.4,-257.2)">
        <path d="M65.4,349.3C65,349.1 64.7,348.8 64.3,348.6C64.7,348.8 65,349 65.4,349.3" style="fill:rgb(99,60,32);fill-rule:nonzero;"/>
    </g>
    <g transform="matrix(1,0,0,1,-20.4,-257.2)">
        <path d="M91.8,301.1C92.4,301.7 94.4,303.7 95.6,304.9L95.6,297.2C94.4,298.5 92.4,300.6 91.8,301.1" style="fill:rgb(99,60,32);fill-rule:nonzero;"/>
    </g>
    <g transform="matrix(1,0,0,1,-20.4,-257.2)">
        <path d="M67.3,294.3L67.4,292C66.5,292.5 65.6,293 64.7,293.5C65.1,293.3 65.4,293 65.8,292.8L67.3,294.3Z" style="fill:rgb(99,60,32);fill-rule:nonzero;"/>
    </g>
    <g transform="matrix(1,0,0,1,-20.4,-257.2)">
        <path d="M57.8,299.3L57.8,306.1L67.2,306.1L67.2,296.6L60.5,296.6C59,297.9 57.7,299.3 56.5,300.8C56.9,300.3 57.3,299.8 57.8,299.3Z" style="fill:rgb(99,60,32);fill-rule:nonzero;"/>
    </g>
    <g transform="matrix(1,0,0,1,-20.4,-257.2)">
        <path d="M76.2,295.2L76.2,289C76.6,288.9 77,288.9 77.5,288.8L77.5,295.4L81.6,299.5L81.6,292.6L77.7,288.7C74.5,289.1 71.5,290 68.7,291.3L68.7,295.2L76.2,295.2Z" style="fill:rgb(99,60,32);fill-rule:nonzero;"/>
    </g>
    <g transform="matrix(1,0,0,1,-20.4,-257.2)">
        <path d="M64.7,293.5C63.8,294.1 63,294.6 62.1,295.3L66.4,295.3C65.9,294.8 65.3,294.1 64.7,293.5" style="fill:rgb(99,60,32);fill-rule:nonzero;"/>
    </g>
    <g transform="matrix(1,0,0,1,-20.4,-257.2)">
        <path d="M95.7,295.3L95.7,291.5C96.1,291.7 96.5,291.9 97,292.1L97,294.4L98.5,292.9C98.9,293.1 99.3,293.3 99.6,293.6C99,294.2 98.4,294.8 97.9,295.3L101.9,295.3C97.9,292.2 93.2,290.1 88.1,289.1L88.1,295.3L95.7,295.3Z" style="fill:rgb(99,60,32);fill-rule:nonzero;"/>
    </g>
    <g transform="matrix(1,0,0,1,-20.4,-257.2)">
        <path d="M97,296.6L97,306.1L106.4,306.1L106.4,299.5C106.8,300 107.3,300.5 107.7,301C106,298.9 104.1,297 101.9,295.3C102.4,295.7 102.9,296.1 103.5,296.6L97,296.6Z" style="fill:rgb(99,60,32);fill-rule:nonzero;"/>
    </g>
    <g transform="matrix(1,0,0,1,-20.4,-257.2)">
        <path d="M82.8,292.5L82.8,299.4L86.8,295.4L86.8,288.8C86.2,288.7 85.5,288.6 84.9,288.6C85.4,288.6 86,288.7 86.5,288.8L82.8,292.5Z" style="fill:rgb(99,60,32);fill-rule:nonzero;"/>
    </g>
    <g transform="matrix(1,0,0,1,-20.4,-257.2)">
        <path d="M109.4,303.3C108.9,302.5 108.3,301.7 107.7,301L107.7,305C108.2,304.5 108.8,303.9 109.4,303.3" style="fill:rgb(99,60,32);fill-rule:nonzero;"/>
    </g>
    <g transform="matrix(1,0,0,1,-20.4,-257.2)">
        <path d="M110.9,305.9C111.1,306.3 111.3,306.7 111.5,307.2L107.7,307.2L107.7,314.8L114,314.8C113.3,311.1 111.9,307.6 110,304.5L108.5,306L110.9,306L110.9,305.9Z" style="fill:rgb(99,60,32);fill-rule:nonzero;"/>
    </g>
    <g transform="matrix(1,0,0,1,-20.4,-257.2)">
        <path d="M94.6,296.6L87.6,296.6L83.7,300.4L90.8,300.4L94.6,296.6Z" style="fill:rgb(99,60,32);fill-rule:nonzero;"/>
    </g>
    <g transform="matrix(1,0,0,1,-20.4,-257.2)">
        <path d="M77.5,352.8L81.5,348.8L81.5,341.7L77.5,345.7L77.5,352.8Z" style="fill:rgb(99,60,32);fill-rule:nonzero;"/>
    </g>
    <g transform="matrix(1,0,0,1,-20.4,-257.2)">
        <path d="M77.5,334.6L81.5,338.7L81.5,331.8L77.5,327.7L77.5,334.6Z" style="fill:rgb(99,60,32);fill-rule:nonzero;"/>
    </g>
    <g transform="matrix(1,0,0,1,-20.4,-257.2)">
        <path d="M73.6,340.8L69.4,345L76.3,345L80.6,340.8L73.6,340.8Z" style="fill:rgb(99,60,32);fill-rule:nonzero;"/>
    </g>
    <g transform="matrix(1,0,0,1,-20.4,-257.2)">
        <path d="M85.9,326.7L78.2,326.7C79.4,327.9 81.4,329.9 82,330.5C82.7,330 84.7,328 85.9,326.7" style="fill:rgb(99,60,32);fill-rule:nonzero;"/>
    </g>
    <g transform="matrix(1,0,0,1,-20.4,-257.2)">
        <path d="M94.8,305.9L90.6,301.7L83.7,301.7L87.8,305.9L94.8,305.9Z" style="fill:rgb(99,60,32);fill-rule:nonzero;"/>
    </g>
    <g transform="matrix(1,0,0,1,-20.4,-257.2)">
        <path d="M62.6,330.6C62,331.2 60,333.2 58.8,334.4L66.5,334.4C65.2,333.2 63.2,331.2 62.6,330.6" style="fill:rgb(99,60,32);fill-rule:nonzero;"/>
    </g>
    <g transform="matrix(1,0,0,1,-20.4,-257.2)">
        <path d="M63.3,329.5L67.3,333.5L67.3,333.4L67.4,333.4L67.4,326.5L63.3,322.4L63.3,329.5Z" style="fill:rgb(99,60,32);fill-rule:nonzero;"/>
    </g>
    <g transform="matrix(1,0,0,1,-20.4,-257.2)">
        <path d="M82.8,348.9L86.9,352.9L86.9,345.9L82.8,341.8L82.8,348.9Z" style="fill:rgb(99,60,32);fill-rule:nonzero;"/>
    </g>
    <g transform="matrix(1,0,0,1,-20.4,-257.2)">
        <path d="M71.1,321.4L64.1,321.4L68.2,325.6L75.2,325.6L71.1,321.4Z" style="fill:rgb(99,60,32);fill-rule:nonzero;"/>
    </g>
    <g transform="matrix(1,0,0,1,-20.4,-257.2)">
        <path d="M93.3,321.4L89.2,325.6L96,325.6L100.2,321.4L93.3,321.4Z" style="fill:rgb(99,60,32);fill-rule:nonzero;"/>
    </g>
    <g transform="matrix(1,0,0,1,-20.4,-257.2)">
        <path d="M101.7,330.6C101.1,331.2 99.1,333.2 97.9,334.4L105.6,334.4C104.3,333.2 102.3,331.2 101.7,330.6" style="fill:rgb(99,60,32);fill-rule:nonzero;"/>
    </g>
    <g transform="matrix(1,0,0,1,-20.4,-257.2)">
        <path d="M110.2,321.4L103.3,321.4L107.1,325.3L114.1,325.3L110.2,321.4Z" style="fill:rgb(99,60,32);fill-rule:nonzero;"/>
    </g>
    <g transform="matrix(1,0,0,1,-20.4,-257.2)">
        <path d="M102.4,329.5L106.4,333.5L106.4,326.4L102.4,322.4L102.4,329.5Z" style="fill:rgb(99,60,32);fill-rule:nonzero;"/>
    </g>
    <g transform="matrix(1,0,0,1,-20.4,-257.2)">
        <path d="M108.5,335.4L110.4,337.3C110.8,336.7 111.1,336.1 111.4,335.4L108.5,335.4Z" style="fill:rgb(99,60,32);fill-rule:nonzero;"/>
    </g>
    <g transform="matrix(1,0,0,1,-20.4,-257.2)">
        <path d="M83.6,340.8L87.7,344.9L94.7,344.9L90.6,340.8L83.6,340.8Z" style="fill:rgb(99,60,32);fill-rule:nonzero;"/>
    </g>
    <g transform="matrix(1,0,0,1,-20.4,-257.2)">
        <path d="M91.8,340.3C92.4,340.9 94.4,342.9 95.6,344.1L95.6,336.4C94.4,337.7 92.4,339.7 91.8,340.3" style="fill:rgb(99,60,32);fill-rule:nonzero;"/>
    </g>
    <g transform="matrix(1,0,0,1,-20.4,-257.2)">
        <path d="M101.2,322.3L97,326.4L97,333.6L101.2,329.4L101.2,322.3Z" style="fill:rgb(99,60,32);fill-rule:nonzero;"/>
    </g>
    <g transform="matrix(1,0,0,1,-20.4,-257.2)">
        <rect x="88.2" y="326.8" width="7.6" height="7.6" style="fill:rgb(99,60,32);"/>
    </g>
    <g transform="matrix(1,0,0,1,-20.4,-257.2)">
        <path d="M62,322.3L57.9,326.4L57.9,333.6L62,329.4L62,322.3Z" style="fill:rgb(99,60,32);fill-rule:nonzero;"/>
    </g>
    <g transform="matrix(1,0,0,1,-20.4,-257.2)">
        <path d="M72.4,340.3C71.8,339.7 69.8,337.7 68.6,336.5L68.6,344.2C69.8,342.9 71.8,340.9 72.4,340.3" style="fill:rgb(99,60,32);fill-rule:nonzero;"/>
    </g>
    <g transform="matrix(1,0,0,1,-20.4,-257.2)">
        <path d="M72.3,320.9C72.9,321.5 74.9,323.5 76.1,324.7L76.1,317C74.9,318.3 72.9,320.3 72.3,320.9" style="fill:rgb(99,60,32);fill-rule:nonzero;"/>
    </g>
    <g transform="matrix(1,0,0,1,-20.4,-257.2)">
        <path d="M94.6,335.7L87.6,335.7L83.7,339.5L90.8,339.5L94.6,335.7Z" style="fill:rgb(99,60,32);fill-rule:nonzero;"/>
    </g>
    <g transform="matrix(1,0,0,1,-20.4,-257.2)">
        <path d="M82.8,331.7L82.8,338.6L86.9,334.6L86.9,327.6L82.8,331.7Z" style="fill:rgb(99,60,32);fill-rule:nonzero;"/>
    </g>
    <g transform="matrix(1,0,0,1,-20.4,-257.2)">
        <rect x="68.6" y="307.1" width="7.5" height="7.6" style="fill:rgb(99,60,32);"/>
    </g>
    <g transform="matrix(1,0,0,1,-20.4,-257.2)">
        <path d="M86.9,306.8L82.8,302.7L82.8,309.8L86.9,313.8L86.9,306.8Z" style="fill:rgb(99,60,32);fill-rule:nonzero;"/>
    </g>
    <g transform="matrix(1,0,0,1,-20.4,-257.2)">
        <rect x="77.4" y="316" width="9.5" height="9.5" style="fill:rgb(99,60,32);"/>
    </g>
    <g transform="matrix(1,0,0,1,-20.4,-257.2)">
        <rect x="68.6" y="326.8" width="7.5" height="7.6" style="fill:rgb(99,60,32);"/>
    </g>
    <g transform="matrix(1,0,0,1,-20.4,-257.2)">
        <path d="M54.1,321.4L50,325.6L56.9,325.6L61.1,321.4L54.1,321.4Z" style="fill:rgb(99,60,32);fill-rule:nonzero;"/>
    </g>
    <g transform="matrix(1,0,0,1,-20.4,-257.2)">
        <path d="M80.6,339.5L76.8,335.7L69.6,335.7L73.5,339.5L80.6,339.5Z" style="fill:rgb(99,60,32);fill-rule:nonzero;"/>
    </g>
    <g transform="matrix(1,0,0,1,-20.4,-257.2)">
        <path d="M80.6,301.7L73.7,301.7L69.5,305.9L76.4,305.9L80.6,301.7Z" style="fill:rgb(99,60,32);fill-rule:nonzero;"/>
    </g>
    <g transform="matrix(1,0,0,1,-20.4,-257.2)">
        <path d="M80.6,300.4L76.7,296.5L69.6,296.5L73.5,300.4L80.6,300.4Z" style="fill:rgb(99,60,32);fill-rule:nonzero;"/>
    </g>
    <g transform="matrix(1,0,0,1,-20.4,-257.2)">
        <path d="M72.4,301.1C71.8,300.5 69.8,298.5 68.6,297.3L68.6,305C69.8,303.7 71.8,301.7 72.4,301.1" style="fill:rgb(99,60,32);fill-rule:nonzero;"/>
    </g>
    <g transform="matrix(1,0,0,1,-20.4,-257.2)">
        <path d="M63.3,319.2L67.4,315.2L67.4,308.2L63.3,312.3L63.3,319.2Z" style="fill:rgb(99,60,32);fill-rule:nonzero;"/>
    </g>
    <g transform="matrix(1,0,0,1,-20.4,-257.2)">
        <path d="M71.2,320.2L75.4,316L68.4,316L64.2,320.2L71.2,320.2Z" style="fill:rgb(99,60,32);fill-rule:nonzero;"/>
    </g>
    <g transform="matrix(1,0,0,1,-20.4,-257.2)">
        <path d="M66.4,307.3L58.7,307.3C59.9,308.5 61.9,310.5 62.5,311.1C63.2,310.6 65.2,308.6 66.4,307.3" style="fill:rgb(99,60,32);fill-rule:nonzero;"/>
    </g>
    <g transform="matrix(1,0,0,1,-20.4,-257.2)">
        <path d="M62,312.4L57.9,308.2L57.9,315.1L62,319.3L62,312.4Z" style="fill:rgb(99,60,32);fill-rule:nonzero;"/>
    </g>
    <g transform="matrix(1,0,0,1,-20.4,-257.2)">
        <path d="M78.3,314.7L86,314.7C84.8,313.5 82.8,311.5 82.2,310.9C81.5,311.5 79.5,313.5 78.3,314.7" style="fill:rgb(99,60,32);fill-rule:nonzero;"/>
    </g>
    <g transform="matrix(1,0,0,1,-20.4,-257.2)">
        <path d="M77.5,313.7L81.6,309.6L81.6,302.5L77.5,306.6L77.5,313.7Z" style="fill:rgb(99,60,32);fill-rule:nonzero;"/>
    </g>
    <g transform="matrix(1,0,0,1,-20.4,-257.2)">
        <path d="M110.4,337.3C110.4,337.3 110.4,337.4 110.4,337.3C110.4,337.4 110.4,337.3 110.4,337.3" style="fill:rgb(99,60,32);fill-rule:nonzero;"/>
    </g>
    <g transform="matrix(1,0,0,1,-20.4,-257.2)">
        <path d="M97,350.2" style="fill:rgb(99,60,32);fill-rule:nonzero;"/>
    </g>
    <g transform="matrix(1,0,0,1,-20.4,-257.2)">
        <path d="M88.2,289.1C88.1,289.1 88.1,289.1 88.2,289.1" style="fill:rgb(99,60,32);fill-rule:nonzero;"/>
    </g>
    <g transform="matrix(1,0,0,1,-20.4,-257.2)">
        <path d="M86.9,288.8L86.9,288.9L86.9,288.8Z" style="fill:rgb(99,60,32);fill-rule:nonzero;"/>
    </g>
    <g transform="matrix(1,0,0,1,-20.4,-257.2)">
        <path d="M114,314.7C114,314.9 114.1,315.1 114.1,315.2C114.1,315.1 114.1,314.9 114,314.7" style="fill:rgb(99,60,32);fill-rule:nonzero;"/>
    </g>
    <g transform="matrix(1,0,0,1,-20.4,-257.2)">
        <path d="M68.6,291.4" style="fill:rgb(99,60,32);fill-rule:nonzero;"/>
    </g>
    <g transform="matrix(1,0,0,1,-20.4,-257.2)">
        <path d="M118.8,348.9L134.9,344.1L134.9,257.2L86.5,277.1L86.5,279.3L118.8,279.3L118.8,348.9Z" style="fill:rgb(99,60,32);fill-rule:nonzero;"/>
    </g>
    <g transform="matrix(1,0,0,1,-20.4,-257.2)">
        <path d="M118.8,361.1L43.7,361.1L20.4,382.9L139.7,382.9L118.8,361.1Z" style="fill:rgb(99,60,32);fill-rule:nonzero;"/>
    </g>
    <g transform="matrix(1,0,0,1,-20.4,-257.2)">
        <path d="M144.1,270.7L140.5,269.4L140.5,340.6L144.1,341.4L144.1,270.7Z" style="fill:rgb(99,60,32);fill-rule:nonzero;"/>
    </g>
    <g transform="matrix(1,0,0,1,-20.4,-257.2)">
        <path d="M151.6,273.4L148.1,272.1L148.1,342.3L151.6,343.1L151.6,273.4Z" style="fill:rgb(99,60,32);fill-rule:nonzero;"/>
    </g>
    <g transform="matrix(1,0,0,1,-20.4,-257.2)">
        <path d="M159.4,276.1L155.6,274.8L155.6,344.1L159.4,345L159.4,276.1Z" style="fill:rgb(99,60,32);fill-rule:nonzero;"/>
    </g>
    <g transform="matrix(1,0,0,1,-20.4,-257.2)">
        <path d="M166.7,278.7L163.1,277.4L163.1,345.8L166.7,346.7L166.7,278.7Z" style="fill:rgb(99,60,32);fill-rule:nonzero;"/>
    </g>
    <g transform="matrix(1,0,0,1,-20.4,-257.2)">
        <path d="M174.3,281.4L170.7,280.1L170.7,347.6L174.3,348.5L174.3,281.4Z" style="fill:rgb(99,60,32);fill-rule:nonzero;"/>
    </g>
    <g transform="matrix(1,0,0,1,-20.4,-257.2)">
        <path d="M181.7,284L178.2,282.7L178.2,349.3L181.7,350.2L181.7,284Z" style="fill:rgb(99,60,32);fill-rule:nonzero;"/>
    </g>
    <g transform="matrix(1,0,0,1,-20.4,-257.2)">
        <path d="M189.3,286.6L185.6,285.3L185.6,351.1L189.3,351.9L189.3,286.6Z" style="fill:rgb(99,60,32);fill-rule:nonzero;"/>
    </g>
</svg>
